<?xml version="1.0" encoding="iso-8859-1"?>
<!-- Uploaded to: SVG Repo, www.svgrepo.com, Generator: SVG Repo Mixer Tools -->
<svg fill="#000000" height="800px" width="800px" version="1.1" id="Layer_1" xmlns="http://www.w3.org/2000/svg" xmlns:xlink="http://www.w3.org/1999/xlink" 
	 viewBox="0 0 317.02 317.02" xml:space="preserve">
<g>
	<g>
		<g>
			<path d="M226.306,21.828c3.272-1.256,6.596-2.332,9.972-3.26c2.848-0.784,1.64-5.22-1.224-4.432
				c-3.376,0.932-6.7,2.008-9.968,3.26C222.354,18.448,223.538,22.892,226.306,21.828z"/>
			<path d="M218.154,20.46c-12.052,6.22-21.976,15.908-25.876,29.152c-0.836,2.84,3.596,4.056,4.432,1.224
				c3.572-12.132,12.772-20.736,23.764-26.408C223.102,23.072,220.782,19.104,218.154,20.46z"/>
			<path d="M204.462,218.3c-1.58-0.828-3.556-0.22-4.396,1.368l-48.644,92.58c-0.836,1.596-0.224,3.56,1.368,4.4
				c0.484,0.252,1.004,0.372,1.512,0.372c1.172,0,2.3-0.632,2.888-1.74l48.64-92.584C206.67,221.108,206.058,219.14,204.462,218.3z"
				/>
			<path d="M67.01,101.684c-0.868-1.576-2.844-2.14-4.424-1.28L43.502,110.94c-1.572,0.868-2.144,2.848-1.272,4.424
				c0.592,1.076,1.704,1.684,2.852,1.684c0.532,0,1.072-0.132,1.572-0.412l19.076-10.532
				C67.306,105.24,67.878,103.256,67.01,101.684z"/>
			<path d="M56.758,212.764L1.93,260.744c-1.352,1.184-1.488,3.244-0.304,4.596c0.644,0.736,1.544,1.112,2.452,1.112
				c0.76,0,1.524-0.264,2.144-0.804l54.828-47.984c1.352-1.18,1.488-3.24,0.304-4.596C60.166,211.716,58.114,211.58,56.758,212.764z
				"/>
			<path d="M127.51,158.112c-1.2-1.344-3.264-1.44-4.596-0.24c-21.092,19.004-37.972,32.86-54.74,44.924
				c-1.46,1.052-1.792,3.084-0.74,4.548c0.636,0.884,1.632,1.352,2.644,1.352c0.66,0,1.324-0.2,1.9-0.616
				c16.964-12.208,34.02-26.2,55.292-45.372C128.606,161.508,128.714,159.448,127.51,158.112z"/>
			<path d="M133.554,148.18c-1.32,1.216-1.408,3.28-0.192,4.6c0.644,0.7,1.52,1.052,2.396,1.052c0.788,0,1.58-0.284,2.204-0.86
				c7.9-7.268,15.74-14.604,23.576-21.94c7.724-7.228,15.444-14.456,23.232-21.62c1.324-1.22,1.408-3.28,0.192-4.604
				c-1.216-1.32-3.28-1.404-4.604-0.188c-7.8,7.176-15.536,14.416-23.272,21.66C149.266,133.6,141.442,140.924,133.554,148.18z"/>
			<path d="M100.446,238.12c1.336-1.204,1.448-3.26,0.244-4.596c-1.196-1.336-3.26-1.444-4.6-0.244l-12.388,11.128
				c-1.336,1.2-1.448,3.26-0.244,4.596c0.644,0.716,1.532,1.08,2.424,1.08c0.776,0,1.556-0.276,2.176-0.832L100.446,238.12z"/>
			<path d="M87.37,144.472c0.616,0.004,1.24-0.168,1.792-0.536l23.228-15.328c1.5-0.988,1.916-3.008,0.924-4.508
				c-0.992-1.504-3.016-1.916-4.508-0.924l-23.232,15.328c-1.5,0.988-1.916,3.008-0.924,4.508
				C85.278,143.96,86.314,144.472,87.37,144.472z"/>
			<path d="M159.95,89.42l-34.592,22.832c-1.5,0.988-1.916,3.008-0.924,4.508c0.624,0.948,1.66,1.46,2.72,1.46
				c0.616,0,1.236-0.172,1.792-0.536l34.592-22.832c1.5-0.988,1.916-3.008,0.924-4.512C163.462,88.836,161.446,88.428,159.95,89.42z
				"/>
			<path d="M249.558,200.584c-1.752-0.428-3.504,0.66-3.928,2.404l-8.22,34.156c-0.42,1.752,0.656,3.508,2.404,3.928
				c0.256,0.06,0.512,0.092,0.764,0.092c1.472,0,2.804-1.004,3.164-2.496l8.224-34.16
				C252.386,202.76,251.31,201.004,249.558,200.584z"/>
			<path d="M260.674,154.42c-1.728-0.428-3.504,0.652-3.928,2.404l-8.224,34.156c-0.42,1.748,0.656,3.508,2.404,3.928
				c0.256,0.06,0.512,0.092,0.768,0.092c1.468,0,2.8-1.004,3.16-2.496l8.22-34.152C263.498,156.6,262.426,154.84,260.674,154.42z"/>
			<path d="M109.338,279.784c-1.436-1.08-3.472-0.8-4.564,0.628l-17.028,22.46c-1.084,1.436-0.804,3.476,0.628,4.564
				c0.588,0.444,1.28,0.66,1.964,0.66c0.984,0,1.956-0.444,2.6-1.288l17.028-22.46C111.05,282.916,110.77,280.872,109.338,279.784z"
				/>
			<path d="M162.222,210.028c-1.432-1.084-3.476-0.804-4.56,0.628L114.35,267.78c-1.084,1.436-0.804,3.476,0.628,4.564
				c0.588,0.444,1.276,0.66,1.964,0.66c0.984,0,1.956-0.444,2.6-1.288l43.308-57.128
				C163.938,213.152,163.658,211.112,162.222,210.028z"/>
			<path d="M278.074,7.92c-1.484-0.768-3.332-0.296-4.244,1.128c-1.32,2.044-2.968,3.668-4.908,4.824
				c-3.524,2.104-7.668,2.676-11.684,1.628c-4.032-1.056-7.44-3.628-9.592-7.248c-0.988-1.656-1.664-3.516-2.004-5.536
				c-0.276-1.62-1.68-2.796-3.352-2.712C218.598,1.02,197.998,13.68,185.914,32.32L74.234,93.976
				c-1.576,0.868-2.148,2.852-1.28,4.424c0.596,1.08,1.708,1.684,2.856,1.684c0.536,0,1.072-0.132,1.572-0.404l102.852-56.784
				c-3.52,8.204-5.54,17.192-5.696,26.624c-0.028,1.796,1.404,3.28,3.204,3.308c1.656,0.084,3.28-1.404,3.308-3.2
				c0.548-33.04,26.172-60.188,58.84-62.944c0.524,1.736,1.248,3.376,2.16,4.908c3.036,5.092,7.844,8.716,13.54,10.212
				c5.72,1.5,11.636,0.668,16.672-2.332c1.964-1.176,3.716-2.664,5.228-4.44c20.316,11.712,32.588,33.2,32.192,56.732
				c-0.06,3.816-0.52,7.524-1.22,11.152c-0.44,1.824-3.368,11.508-3.368,11.508c-9.6,24.16-33.304,41.184-60.792,40.592
				c-9.868-0.168-19.3-2.496-28.032-6.932c-0.016-0.008-0.036-0.004-0.048-0.016c-0.212-0.1-0.436-0.132-0.66-0.184
				c-0.196-0.048-0.38-0.132-0.576-0.144c-0.136-0.008-0.264,0.04-0.396,0.048c-0.284,0.02-0.564,0.028-0.832,0.116
				c-0.128,0.044-0.232,0.14-0.352,0.2c-0.26,0.124-0.524,0.244-0.744,0.436c-0.012,0.012-0.028,0.016-0.04,0.024L105.838,224.52
				c-1.336,1.2-1.448,3.26-0.244,4.596c0.64,0.716,1.532,1.08,2.42,1.08c0.776,0,1.556-0.272,2.176-0.836l105.22-94.56
				c8.144,3.816,16.808,5.988,25.832,6.508l-35.42,67.408c-0.836,1.592-0.224,3.56,1.368,4.4c0.484,0.252,1.004,0.372,1.512,0.372
				c1.172,0,2.3-0.632,2.888-1.74l36.976-70.376c20.876-0.94,39.476-10.932,51.864-26.248L263.942,277.22
				c-0.396,1.752,0.708,3.496,2.464,3.892c0.24,0.056,0.48,0.08,0.716,0.08c1.492,0,2.832-1.032,3.172-2.544l41.064-182.444
				c2.94-7.58,4.688-15.756,4.832-24.344C316.638,44.932,302.03,20.432,278.074,7.92z"/>
			<path d="M211.654,89.084c-1.332,5.468-0.468,11.16,2.436,16.036c2.904,4.872,7.504,8.34,12.948,9.764
				c1.776,0.464,3.572,0.696,5.352,0.696c3.696,0,7.324-0.992,10.568-2.924c4.812-2.868,8.2-7.468,9.536-12.948
				c1.332-5.468,0.468-11.16-2.44-16.036c-2.904-4.872-7.504-8.34-12.948-9.764c-5.464-1.436-11.116-0.64-15.924,2.228
				C216.378,79.004,212.994,83.596,211.654,89.084z M231.766,77.768c1.392,0,2.8,0.18,4.188,0.544
				c4.28,1.124,7.9,3.852,10.192,7.692c2.288,3.84,2.968,8.32,1.92,12.62c-1.044,4.288-3.684,7.876-7.436,10.112l-0.004,0.004
				c-3.752,2.236-8.164,2.856-12.432,1.736c-4.28-1.12-7.9-3.852-10.184-7.688c-2.288-3.84-2.972-8.32-1.924-12.624
				c1.044-4.288,3.688-7.876,7.436-10.112C226.05,78.536,228.882,77.768,231.766,77.768z"/>
			<path d="M275.342,105.06c2.808,0,5.64-0.728,8.212-2.26c3.74-2.232,6.368-5.8,7.412-10.064c1.032-4.244,0.364-8.664-1.892-12.444
				c-4.664-7.812-14.72-10.436-22.42-5.844c-3.74,2.232-6.368,5.8-7.408,10.06c-1.032,4.244-0.364,8.664,1.892,12.444
				C264.242,102.16,269.738,105.06,275.342,105.06z M263.67,85.592c0.748-3.064,2.632-5.628,5.312-7.224
				c1.844-1.1,3.872-1.624,5.888-1.624c4.048,0,8.032,2.108,10.288,5.888c1.636,2.744,2.128,5.952,1.376,9.028
				c-0.748,3.064-2.632,5.628-5.312,7.224c-5.536,3.308-12.796,1.392-16.172-4.268C263.41,91.872,262.922,88.664,263.67,85.592z"/>
			<path d="M227.122,106.596c6.908,1.148,13.428-1.512,17.564-7.16c1.748-2.388-2.236-4.684-3.968-2.32
				c-2.816,3.848-7.672,5.828-12.376,5.048C225.454,101.688,224.21,106.116,227.122,106.596z"/>
			<path d="M274.802,97.616c4.34,0.024,7.944-2.676,9.336-6.748c0.956-2.804-3.476-4.008-4.432-1.22
				c-0.728,2.136-2.688,3.384-4.904,3.372C271.846,93,271.842,97.596,274.802,97.616z"/>
		</g>
	</g>
</g>
</svg>